<svg xmlns="http://www.w3.org/2000/svg" width="54.69" height="55.94" viewBox="0 0 54.69 55.94">
  <defs>
    <style>
      .a {
        fill: none;
        stroke: #fff;
        stroke-linecap: round;
        stroke-linejoin: round;
        stroke-width: 3.5px;
      }
    </style>
  </defs>
  <title>serviceEszköz 3</title>
  <g>
    <path class="a" d="M10.44,31V49.75h9c2.39,0,5,2.08,14.64,2.08S48,50.69,48.32,48.56s0-3.17-.88-4.05c0,0,4-.93,4-4s-1.76-3.63-1.76-3.63,3.22-1.29,3.22-4.25a3.88,3.88,0,0,0-2.23-3.79s2.23-.57,2.23-4.05a3.94,3.94,0,0,0-3.48-3.89H36.8c-1.56,0-2.18-1.87-1.09-4.36s2.39-5.86,2.39-8.46S36.9,1.75,34,1.75c-1.14,0-1,.52-1.34,1.92a31.84,31.84,0,0,1-5.3,10.12c-3.22,4.15-5,6.8-8.19,11.68S12.46,31,10.44,31Z"/>
    <rect class="a" x="1.75" y="26.79" width="8.69" height="27.4" rx="2"/>
  </g>
</svg>
