<svg xmlns="http://www.w3.org/2000/svg" width="47.63" height="63.82" viewBox="0 0 47.63 63.82">
  <defs>
    <style>
      .a, .b {
        fill: none;
        stroke: #fff;
        stroke-width: 3.5px;
      }

      .a {
        stroke-linejoin: round;
      }

      .b {
        stroke-miterlimit: 10;
      }

      .c {
        fill: #fff;
      }
    </style>
  </defs>
  <title>serviceEszköz 1</title>
  <g>
    <path class="a" d="M14.78,62l-4.11-5.76L3,57a1,1,0,0,1-.54-1.3L8.37,41.44a1,1,0,0,1,1.31-.53,34.49,34.49,0,0,0,11.83,5A1,1,0,0,1,22,47.18L16.09,61.46A1,1,0,0,1,14.78,62Z"/>
    <path class="a" d="M33.15,62l4.11-5.76L45,57a1,1,0,0,0,.54-1.3L39.56,41.44a1,1,0,0,0-1.31-.53,34.43,34.43,0,0,1-11.82,5,1,1,0,0,0-.54,1.31l5.95,14.28A1,1,0,0,0,33.15,62Z"/>
    <circle class="b" cx="23.81" cy="23.81" r="22.06"/>
    <path class="c" d="M22.91,30.58V20.66q-3.72,2.13-5,2.13a1.74,1.74,0,0,1-1.1-.37,1.05,1.05,0,0,1-.47-.84.87.87,0,0,1,.47-.82,11.54,11.54,0,0,1,1.65-.67,13.89,13.89,0,0,0,2.84-1.31,11,11,0,0,0,1.88-1.54c.55-.56.9-.91,1.07-1a1.59,1.59,0,0,1,.94-.2,1.72,1.72,0,0,1,1.24.45,1.63,1.63,0,0,1,.47,1.23V30.15q0,2.19-2,2.19a2.17,2.17,0,0,1-1.43-.45A1.59,1.59,0,0,1,22.91,30.58Z"/>
  </g>
</svg>
